<svg width="393" height="852" viewBox="0 0 393 852" fill="none" xmlns="http://www.w3.org/2000/svg">
<g style="mix-blend-mode:overlay" opacity="0.59">
<path fill-rule="evenodd" clip-rule="evenodd" d="M272.912 63.452C273.446 72.2605 272.046 80.2998 269.398 86.168C266.728 92.0838 262.928 95.5395 258.779 95.7912C254.63 96.0429 250.44 93.0719 247.075 87.5222C243.737 82.0171 241.375 74.2062 240.84 65.3977C240.306 56.5892 241.707 48.5499 244.355 42.6817C247.024 36.7659 250.825 33.3102 254.973 33.0585C259.122 32.8068 263.313 35.7778 266.678 41.3275C270.016 46.8326 272.378 54.6435 272.912 63.452ZM273.91 63.3915C274.995 81.2659 268.247 96.2186 258.84 96.7893C249.432 97.3601 240.927 83.3326 239.842 65.4582C238.758 47.5838 245.505 32.6311 254.913 32.0604C264.32 31.4897 272.826 45.5171 273.91 63.3915ZM267.789 63.5487C268.17 69.8299 267.178 75.5478 265.315 79.706C263.43 83.9134 260.791 86.2656 257.998 86.435C255.205 86.6045 252.3 84.5886 249.921 80.6399C247.568 76.7375 245.893 71.1813 245.512 64.9002C245.131 58.619 246.122 52.9011 247.985 48.7429C249.871 44.5355 252.51 42.1833 255.303 42.0139C258.096 41.8444 261 43.8603 263.38 47.809C265.732 51.7114 267.408 57.2675 267.789 63.5487ZM268.787 63.4882C269.565 76.306 264.761 87.0265 258.058 87.4332C251.355 87.8398 245.291 77.7786 244.514 64.9607C243.736 52.1429 248.54 41.4223 255.242 41.0157C261.945 40.6091 268.009 50.6703 268.787 63.4882Z" fill="white"/>
</g>
<g style="mix-blend-mode:overlay" opacity="0.59">
<path fill-rule="evenodd" clip-rule="evenodd" d="M334.058 285.301C338.452 294.297 340.459 303.349 340.191 310.685C339.923 318.07 337.38 323.443 333.002 325.582C328.624 327.721 322.823 326.424 316.833 322.097C310.881 317.798 304.974 310.652 300.579 301.657C296.185 292.661 294.179 283.609 294.446 276.272C294.715 268.887 297.257 263.515 301.635 261.376C306.013 259.237 311.814 260.534 317.805 264.861C323.756 269.16 329.664 276.306 334.058 285.301ZM334.957 284.862C343.861 303.089 343.182 321.722 333.441 326.481C323.7 331.239 308.585 320.322 299.681 302.095C290.777 283.869 291.455 265.236 301.196 260.477C310.937 255.718 326.052 266.636 334.957 284.862ZM328.661 287.669C331.796 294.087 333.23 300.529 333.054 305.729C332.877 310.979 331.09 314.684 328.115 316.137C325.14 317.59 321.119 316.723 316.869 313.636C312.66 310.578 308.459 305.488 305.324 299.07C302.189 292.652 300.755 286.21 300.931 281.01C301.108 275.761 302.895 272.056 305.87 270.603C308.845 269.149 312.866 270.017 317.116 273.104C321.325 276.161 325.525 281.251 328.661 287.669ZM329.559 287.23C335.945 300.301 335.494 313.645 328.554 317.036C321.613 320.426 310.811 312.579 304.426 299.509C298.04 286.439 298.491 273.095 305.431 269.704C312.372 266.313 323.174 274.16 329.559 287.23Z" fill="white"/>
</g>
<g style="mix-blend-mode:overlay" opacity="0.59">
<path fill-rule="evenodd" clip-rule="evenodd" d="M84.2043 356.932C89.7747 368.334 92.0914 379.935 91.3788 389.446C90.664 398.986 86.9348 406.219 80.6404 409.294C74.346 412.369 66.3483 410.865 58.3843 405.565C50.4435 400.281 42.7168 391.323 37.1463 379.921C31.5758 368.518 29.2592 356.918 29.9718 347.406C30.6865 337.867 34.4158 330.634 40.7102 327.559C47.0046 324.484 55.0022 325.988 62.9663 331.287C70.9071 336.572 78.6338 345.529 84.2043 356.932ZM85.1028 356.493C96.3716 379.56 94.5703 403.602 81.0793 410.192C67.5884 416.783 47.5167 403.427 36.2478 380.36C24.979 357.293 26.7803 333.251 40.2712 326.66C53.7622 320.069 73.8339 333.426 85.1028 356.493ZM76.742 360.238C80.719 368.379 82.3787 376.642 81.8917 383.396C81.4027 390.178 78.781 395.228 74.4289 397.354C70.0767 399.48 64.4823 398.444 58.8317 394.661C53.2053 390.894 47.7069 384.506 43.7299 376.365C39.7529 368.224 38.0932 359.961 38.5802 353.207C39.0692 346.425 41.6909 341.375 46.043 339.249C50.3952 337.123 55.9896 338.159 61.6402 341.942C67.2666 345.709 72.765 352.097 76.742 360.238ZM77.6405 359.799C85.7215 376.34 84.4801 393.556 74.8678 398.252C65.2555 402.948 50.9123 393.346 42.8314 376.804C34.7504 360.263 35.9918 343.047 45.6041 338.351C55.2164 333.655 69.5596 343.258 77.6405 359.799Z" fill="white"/>
</g>
<g style="mix-blend-mode:overlay" opacity="0.59">
<path fill-rule="evenodd" clip-rule="evenodd" d="M102.627 121.774C121.047 99.281 140.658 81.3728 157.446 70.5925C165.846 65.1992 173.49 61.6218 179.891 60.122C186.31 58.6179 191.29 59.2406 194.601 61.9526C197.913 64.6645 199.505 69.4235 199.296 76.0132C199.088 82.5846 197.087 90.7839 193.456 100.082C186.197 118.666 172.506 141.422 154.086 163.915C135.665 186.408 116.055 204.317 99.2659 215.097C90.8666 220.49 83.2226 224.068 76.8211 225.568C70.402 227.072 65.4226 226.449 62.111 223.737C58.7994 221.025 57.2073 216.266 57.4164 209.676C57.6248 203.105 59.6251 194.906 63.2567 185.608C70.5157 167.023 84.2065 144.267 102.627 121.774ZM101.853 121.141C138.789 76.0377 180.598 49.192 195.235 61.1789C209.872 73.1658 191.795 119.446 154.859 164.549C117.923 209.652 76.1146 236.498 61.4774 224.511C46.8402 212.524 64.917 166.243 101.853 121.141ZM110.137 128.824C123.333 112.71 137.361 99.8788 149.348 92.1499C155.347 88.2822 160.785 85.7243 165.318 84.6473C169.87 83.5659 173.315 84.0167 175.572 85.8653C177.83 87.7139 178.951 91.0029 178.788 95.6784C178.626 100.335 177.19 106.17 174.581 112.814C169.367 126.089 159.553 142.371 146.357 158.485C133.16 174.599 119.132 187.43 107.145 195.159C101.147 199.027 95.7086 201.585 91.1756 202.662C86.6239 203.743 83.1785 203.293 80.9212 201.444C78.6638 199.595 77.5427 196.306 77.7056 191.631C77.8678 186.975 79.3034 181.139 81.9127 174.496C87.1268 161.22 96.9408 144.938 110.137 128.824ZM109.363 128.19C135.85 95.8469 165.777 76.551 176.206 85.0916C186.635 93.6323 173.617 126.775 147.13 159.119C120.643 191.462 90.7166 210.758 80.2876 202.218C69.8586 193.677 82.8762 160.534 109.363 128.19Z" fill="white"/>
</g>
<g style="mix-blend-mode:overlay" opacity="0.59">
<path fill-rule="evenodd" clip-rule="evenodd" d="M301.261 500.475C325.817 470.49 353.679 448.018 378.838 435.903C404.077 423.749 426.229 422.172 439.754 433.249C453.28 444.325 456.101 466.353 449.161 493.493C442.244 520.546 425.706 552.292 401.149 582.278C376.593 612.263 348.731 634.735 323.572 646.85C298.333 659.004 276.181 660.581 262.656 649.504C249.13 638.428 246.309 616.4 253.249 589.26C260.166 562.207 276.704 530.461 301.261 500.475ZM300.487 499.842C349.741 439.697 412.377 409.536 440.388 432.475C468.399 455.414 451.177 522.767 401.923 582.911C352.669 643.056 290.033 673.217 262.022 650.278C234.011 627.339 251.233 559.986 300.487 499.842ZM315.888 513.654C333.478 492.175 353.402 476.068 371.357 467.368C389.395 458.627 405.075 457.517 414.571 465.294C424.067 473.071 426.071 488.662 421.058 508.069C416.067 527.387 404.204 550.095 386.614 571.574C369.025 593.053 349.101 609.16 331.146 617.861C313.107 626.601 297.428 627.711 287.931 619.934C278.435 612.158 276.432 596.567 281.445 577.159C286.435 557.841 298.299 535.133 315.888 513.654ZM315.115 513.021C350.435 469.891 395.247 448.176 415.205 464.52C435.163 480.864 422.708 529.078 387.388 572.208C352.067 615.338 307.256 637.052 287.298 620.708C267.34 604.364 279.794 556.151 315.115 513.021Z" fill="white"/>
</g>
<g style="mix-blend-mode:overlay" opacity="0.59">
<path fill-rule="evenodd" clip-rule="evenodd" d="M-25.0654 705.14C-22.7854 651.679 -11.3136 603.728 5.35028 569.426C13.683 552.273 23.2923 538.577 33.6587 529.306C44.0202 520.038 55.085 515.232 66.3792 515.714C77.6734 516.196 88.2889 521.926 97.8237 532.042C107.363 542.163 115.771 556.627 122.613 574.427C136.296 610.023 143.644 658.777 141.364 712.238C139.083 765.698 127.612 813.649 110.948 847.951C102.615 865.104 93.0058 878.8 82.6394 888.072C72.2779 897.339 61.2131 902.145 49.9189 901.663C38.6247 901.182 28.0092 895.451 18.4744 885.335C8.93507 875.214 0.526737 860.75 -6.31526 842.95C-19.998 807.354 -27.3455 758.6 -25.0654 705.14ZM-26.0645 705.097C-21.4956 597.968 19.912 512.731 66.4218 514.715C112.932 516.698 146.932 605.151 142.363 712.28C137.794 819.409 96.3861 904.646 49.8763 902.662C3.3664 900.679 -30.6334 812.226 -26.0645 705.097ZM0.143812 707.496C1.77763 669.188 9.95468 634.839 21.8143 610.28C27.7449 597.998 34.5748 588.21 41.9266 581.591C49.2738 574.977 57.0877 571.573 65.0367 571.912C72.9857 572.251 80.4814 576.308 87.2388 583.524C94.0004 590.744 99.972 601.079 104.835 613.82C114.561 639.3 119.784 674.221 118.15 712.529C116.516 750.837 108.339 785.186 96.4794 809.745C90.5488 822.027 83.719 831.815 76.3671 838.434C69.0199 845.048 61.2061 848.452 53.257 848.113C45.308 847.774 37.8123 843.717 31.055 836.501C24.2934 829.281 18.3217 818.946 13.4583 806.205C3.73281 780.725 -1.49 745.805 0.143812 707.496ZM-0.85528 707.454C2.42112 630.631 31.9411 569.5 65.0793 570.913C98.2176 572.326 122.425 635.749 119.149 712.572C115.873 789.394 86.3527 850.525 53.2144 849.112C20.0762 847.699 -4.13168 784.276 -0.85528 707.454Z" fill="white"/>
</g>
<g style="mix-blend-mode:overlay" opacity="0.59">
<path fill-rule="evenodd" clip-rule="evenodd" d="M460.646 100.901C475.45 149.024 482.424 194.526 481.754 229.175C481.418 246.504 479.172 261.061 475.077 271.857C470.976 282.669 465.093 289.539 457.59 291.847C450.087 294.155 441.36 291.78 431.891 285.143C422.435 278.515 412.395 267.739 402.377 253.594C382.347 225.314 362.539 183.761 347.734 135.638C332.929 87.5147 325.956 42.0126 326.626 7.36421C326.961 -9.96563 329.208 -24.5219 333.303 -35.3186C337.404 -46.1304 343.287 -52.9999 350.79 -55.3081C358.293 -57.6164 367.019 -55.2414 376.488 -48.6043C385.944 -41.9766 395.984 -31.2002 406.002 -17.0555C426.032 11.2246 445.841 52.7781 460.646 100.901ZM461.601 100.607C491.256 196.999 489.592 283.048 457.884 292.803C426.176 302.557 376.433 232.324 346.778 135.932C317.124 39.5397 318.788 -46.5093 350.496 -56.2639C382.203 -66.0186 431.947 4.21495 461.601 100.607ZM443.069 105.051C453.679 139.54 458.703 172.131 458.27 196.926C458.054 209.33 456.473 219.724 453.584 227.415C450.688 235.122 446.55 239.938 441.329 241.545C436.108 243.151 429.979 241.493 423.251 236.746C416.538 232.01 409.389 224.301 402.238 214.164C387.943 193.9 373.779 164.121 363.169 129.632C352.558 95.1431 347.535 62.5522 347.967 37.7571C348.183 25.3538 349.764 14.9596 352.654 7.26874C355.55 -0.438168 359.687 -5.25492 364.908 -6.86123C370.13 -8.46753 376.259 -6.80924 382.986 -2.06276C389.699 2.67382 396.849 10.3821 404 20.519C418.294 40.7835 432.458 70.5623 443.069 105.051ZM444.025 104.757C465.29 173.881 464.215 235.55 441.623 242.501C419.032 249.451 383.478 199.049 362.213 129.926C340.948 60.8029 342.023 -0.866829 364.614 -7.81702C387.206 -14.7672 422.759 35.634 444.025 104.757Z" fill="white"/>
</g>
<g style="mix-blend-mode:overlay" opacity="0.59">
<path fill-rule="evenodd" clip-rule="evenodd" d="M272.912 63.452C273.446 72.2605 272.046 80.2998 269.398 86.168C266.728 92.0838 262.928 95.5395 258.779 95.7912C254.63 96.0429 250.44 93.0719 247.075 87.5222C243.737 82.0171 241.375 74.2062 240.84 65.3977C240.306 56.5892 241.707 48.5499 244.355 42.6817C247.024 36.7659 250.825 33.3102 254.973 33.0585C259.122 32.8068 263.313 35.7778 266.678 41.3275C270.016 46.8326 272.378 54.6435 272.912 63.452ZM273.91 63.3915C274.995 81.2659 268.247 96.2186 258.84 96.7893C249.432 97.3601 240.927 83.3326 239.842 65.4582C238.758 47.5838 245.505 32.6311 254.913 32.0604C264.32 31.4897 272.826 45.5171 273.91 63.3915ZM267.789 63.5487C268.17 69.8299 267.178 75.5478 265.315 79.706C263.43 83.9134 260.791 86.2656 257.998 86.435C255.205 86.6045 252.3 84.5886 249.921 80.6399C247.568 76.7375 245.893 71.1813 245.512 64.9002C245.131 58.619 246.122 52.9011 247.985 48.7429C249.871 44.5355 252.51 42.1833 255.303 42.0139C258.096 41.8444 261 43.8603 263.38 47.809C265.732 51.7114 267.408 57.2675 267.789 63.5487ZM268.787 63.4882C269.565 76.306 264.761 87.0265 258.058 87.4332C251.355 87.8398 245.291 77.7786 244.514 64.9607C243.736 52.1429 248.54 41.4223 255.242 41.0157C261.945 40.6091 268.009 50.6703 268.787 63.4882Z" fill="white"/>
</g>
<g style="mix-blend-mode:overlay" opacity="0.59">
<path fill-rule="evenodd" clip-rule="evenodd" d="M334.058 285.301C338.452 294.297 340.459 303.349 340.191 310.685C339.923 318.07 337.38 323.443 333.002 325.582C328.624 327.721 322.823 326.424 316.833 322.097C310.881 317.798 304.974 310.652 300.579 301.657C296.185 292.661 294.179 283.609 294.446 276.272C294.715 268.887 297.257 263.515 301.635 261.376C306.013 259.237 311.814 260.534 317.805 264.861C323.756 269.16 329.664 276.306 334.058 285.301ZM334.957 284.862C343.861 303.089 343.182 321.722 333.441 326.481C323.7 331.239 308.585 320.322 299.681 302.095C290.777 283.869 291.455 265.236 301.196 260.477C310.937 255.718 326.052 266.636 334.957 284.862ZM328.661 287.669C331.796 294.087 333.23 300.529 333.054 305.729C332.877 310.979 331.09 314.684 328.115 316.137C325.14 317.59 321.119 316.723 316.869 313.636C312.66 310.578 308.459 305.488 305.324 299.07C302.189 292.652 300.755 286.21 300.931 281.01C301.108 275.761 302.895 272.056 305.87 270.603C308.845 269.149 312.866 270.017 317.116 273.104C321.325 276.161 325.525 281.251 328.661 287.669ZM329.559 287.23C335.945 300.301 335.494 313.645 328.554 317.036C321.613 320.426 310.811 312.579 304.426 299.509C298.04 286.439 298.491 273.095 305.431 269.704C312.372 266.313 323.174 274.16 329.559 287.23Z" fill="white"/>
</g>
<g style="mix-blend-mode:overlay" opacity="0.59">
<path fill-rule="evenodd" clip-rule="evenodd" d="M84.2043 356.932C89.7747 368.334 92.0914 379.935 91.3788 389.446C90.664 398.986 86.9348 406.219 80.6404 409.294C74.346 412.369 66.3483 410.865 58.3843 405.565C50.4435 400.281 42.7168 391.323 37.1463 379.921C31.5758 368.518 29.2592 356.918 29.9718 347.406C30.6865 337.867 34.4158 330.634 40.7102 327.559C47.0046 324.484 55.0022 325.988 62.9663 331.287C70.9071 336.572 78.6338 345.529 84.2043 356.932ZM85.1028 356.493C96.3716 379.56 94.5703 403.602 81.0793 410.192C67.5884 416.783 47.5167 403.427 36.2478 380.36C24.979 357.293 26.7803 333.251 40.2712 326.66C53.7622 320.069 73.8339 333.426 85.1028 356.493ZM76.742 360.238C80.719 368.379 82.3787 376.642 81.8917 383.396C81.4027 390.178 78.781 395.228 74.4289 397.354C70.0767 399.48 64.4823 398.444 58.8317 394.661C53.2053 390.894 47.7069 384.506 43.7299 376.365C39.7529 368.224 38.0932 359.961 38.5802 353.207C39.0692 346.425 41.6909 341.375 46.043 339.249C50.3952 337.123 55.9896 338.159 61.6402 341.942C67.2666 345.709 72.765 352.097 76.742 360.238ZM77.6405 359.799C85.7215 376.34 84.4801 393.556 74.8678 398.252C65.2555 402.948 50.9123 393.346 42.8314 376.804C34.7504 360.263 35.9918 343.047 45.6041 338.351C55.2164 333.655 69.5596 343.258 77.6405 359.799Z" fill="white"/>
</g>
<g style="mix-blend-mode:overlay" opacity="0.59">
<path fill-rule="evenodd" clip-rule="evenodd" d="M102.627 121.774C121.047 99.281 140.658 81.3728 157.446 70.5925C165.846 65.1992 173.49 61.6218 179.891 60.122C186.31 58.6179 191.29 59.2406 194.601 61.9526C197.913 64.6645 199.505 69.4235 199.296 76.0132C199.088 82.5846 197.087 90.7839 193.456 100.082C186.197 118.666 172.506 141.422 154.086 163.915C135.665 186.408 116.055 204.317 99.2659 215.097C90.8666 220.49 83.2226 224.068 76.8211 225.568C70.402 227.072 65.4226 226.449 62.111 223.737C58.7994 221.025 57.2073 216.266 57.4164 209.676C57.6248 203.105 59.6251 194.906 63.2567 185.608C70.5157 167.023 84.2065 144.267 102.627 121.774ZM101.853 121.141C138.789 76.0377 180.598 49.192 195.235 61.1789C209.872 73.1658 191.795 119.446 154.859 164.549C117.923 209.652 76.1146 236.498 61.4774 224.511C46.8402 212.524 64.917 166.243 101.853 121.141ZM110.137 128.824C123.333 112.71 137.361 99.8788 149.348 92.1499C155.347 88.2822 160.785 85.7243 165.318 84.6473C169.87 83.5659 173.315 84.0167 175.572 85.8653C177.83 87.7139 178.951 91.0029 178.788 95.6784C178.626 100.335 177.19 106.17 174.581 112.814C169.367 126.089 159.553 142.371 146.357 158.485C133.16 174.599 119.132 187.43 107.145 195.159C101.147 199.027 95.7086 201.585 91.1756 202.662C86.6239 203.743 83.1785 203.293 80.9212 201.444C78.6638 199.595 77.5427 196.306 77.7056 191.631C77.8678 186.975 79.3034 181.139 81.9127 174.496C87.1268 161.22 96.9408 144.938 110.137 128.824ZM109.363 128.19C135.85 95.8469 165.777 76.551 176.206 85.0916C186.635 93.6323 173.617 126.775 147.13 159.119C120.643 191.462 90.7166 210.758 80.2876 202.218C69.8586 193.677 82.8762 160.534 109.363 128.19Z" fill="white"/>
</g>
<g style="mix-blend-mode:overlay" opacity="0.59">
<path fill-rule="evenodd" clip-rule="evenodd" d="M301.261 500.475C325.817 470.49 353.679 448.018 378.838 435.903C404.077 423.749 426.229 422.172 439.754 433.249C453.28 444.325 456.101 466.353 449.161 493.493C442.244 520.546 425.706 552.292 401.149 582.278C376.593 612.263 348.731 634.735 323.572 646.85C298.333 659.004 276.181 660.581 262.656 649.504C249.13 638.428 246.309 616.4 253.249 589.26C260.166 562.207 276.704 530.461 301.261 500.475ZM300.487 499.842C349.741 439.697 412.377 409.536 440.388 432.475C468.399 455.414 451.177 522.767 401.923 582.911C352.669 643.056 290.033 673.217 262.022 650.278C234.011 627.339 251.233 559.986 300.487 499.842ZM315.888 513.654C333.478 492.175 353.402 476.068 371.357 467.368C389.395 458.627 405.075 457.517 414.571 465.294C424.067 473.071 426.071 488.662 421.058 508.069C416.067 527.387 404.204 550.095 386.614 571.574C369.025 593.053 349.101 609.16 331.146 617.861C313.107 626.601 297.428 627.711 287.931 619.934C278.435 612.158 276.432 596.567 281.445 577.159C286.435 557.841 298.299 535.133 315.888 513.654ZM315.115 513.021C350.435 469.891 395.247 448.176 415.205 464.52C435.163 480.864 422.708 529.078 387.388 572.208C352.067 615.338 307.256 637.052 287.298 620.708C267.34 604.364 279.794 556.151 315.115 513.021Z" fill="white"/>
</g>
<g style="mix-blend-mode:overlay" opacity="0.59">
<path fill-rule="evenodd" clip-rule="evenodd" d="M-25.0654 705.14C-22.7854 651.679 -11.3136 603.728 5.35028 569.426C13.683 552.273 23.2923 538.577 33.6587 529.306C44.0202 520.038 55.085 515.232 66.3792 515.714C77.6734 516.196 88.2889 521.926 97.8237 532.042C107.363 542.163 115.771 556.627 122.613 574.427C136.296 610.023 143.644 658.777 141.364 712.238C139.083 765.698 127.612 813.649 110.948 847.951C102.615 865.104 93.0058 878.8 82.6394 888.072C72.2779 897.339 61.2131 902.145 49.9189 901.663C38.6247 901.182 28.0092 895.451 18.4744 885.335C8.93507 875.214 0.526737 860.75 -6.31526 842.95C-19.998 807.354 -27.3455 758.6 -25.0654 705.14ZM-26.0645 705.097C-21.4956 597.968 19.912 512.731 66.4218 514.715C112.932 516.698 146.932 605.151 142.363 712.28C137.794 819.409 96.3861 904.646 49.8763 902.662C3.3664 900.679 -30.6334 812.226 -26.0645 705.097ZM0.143812 707.496C1.77763 669.188 9.95468 634.839 21.8143 610.28C27.7449 597.998 34.5748 588.21 41.9266 581.591C49.2738 574.977 57.0877 571.573 65.0367 571.912C72.9857 572.251 80.4814 576.308 87.2388 583.524C94.0004 590.744 99.972 601.079 104.835 613.82C114.561 639.3 119.784 674.221 118.15 712.529C116.516 750.837 108.339 785.186 96.4794 809.745C90.5488 822.027 83.719 831.815 76.3671 838.434C69.0199 845.048 61.2061 848.452 53.257 848.113C45.308 847.774 37.8123 843.717 31.055 836.501C24.2934 829.281 18.3217 818.946 13.4583 806.205C3.73281 780.725 -1.49 745.805 0.143812 707.496ZM-0.85528 707.454C2.42112 630.631 31.9411 569.5 65.0793 570.913C98.2176 572.326 122.425 635.749 119.149 712.572C115.873 789.394 86.3527 850.525 53.2144 849.112C20.0762 847.699 -4.13168 784.276 -0.85528 707.454Z" fill="white"/>
</g>
<g style="mix-blend-mode:overlay" opacity="0.59">
<path fill-rule="evenodd" clip-rule="evenodd" d="M460.646 100.901C475.45 149.024 482.424 194.526 481.754 229.175C481.418 246.504 479.172 261.061 475.077 271.857C470.976 282.669 465.093 289.539 457.59 291.847C450.087 294.155 441.36 291.78 431.891 285.143C422.435 278.515 412.395 267.739 402.377 253.594C382.347 225.314 362.539 183.761 347.734 135.638C332.929 87.5147 325.956 42.0126 326.626 7.36421C326.961 -9.96563 329.208 -24.5219 333.303 -35.3186C337.404 -46.1304 343.287 -52.9999 350.79 -55.3081C358.293 -57.6164 367.019 -55.2414 376.488 -48.6043C385.944 -41.9766 395.984 -31.2002 406.002 -17.0555C426.032 11.2246 445.841 52.7781 460.646 100.901ZM461.601 100.607C491.256 196.999 489.592 283.048 457.884 292.803C426.176 302.557 376.433 232.324 346.778 135.932C317.124 39.5397 318.788 -46.5093 350.496 -56.2639C382.203 -66.0186 431.947 4.21495 461.601 100.607ZM443.069 105.051C453.679 139.54 458.703 172.131 458.27 196.926C458.054 209.33 456.473 219.724 453.584 227.415C450.688 235.122 446.55 239.938 441.329 241.545C436.108 243.151 429.979 241.493 423.251 236.746C416.538 232.01 409.389 224.301 402.238 214.164C387.943 193.9 373.779 164.121 363.169 129.632C352.558 95.1431 347.535 62.5522 347.967 37.7571C348.183 25.3538 349.764 14.9596 352.654 7.26874C355.55 -0.438168 359.687 -5.25492 364.908 -6.86123C370.13 -8.46753 376.259 -6.80924 382.986 -2.06276C389.699 2.67382 396.849 10.3821 404 20.519C418.294 40.7835 432.458 70.5623 443.069 105.051ZM444.025 104.757C465.29 173.881 464.215 235.55 441.623 242.501C419.032 249.451 383.478 199.049 362.213 129.926C340.948 60.8029 342.023 -0.866829 364.614 -7.81702C387.206 -14.7672 422.759 35.634 444.025 104.757Z" fill="white"/>
</g>
</svg>
