<svg width="393" height="736" viewBox="0 0 393 736" fill="none" xmlns="http://www.w3.org/2000/svg">
<path d="M348.862 5.57703C348.862 5.57703 294.139 22.4951 303.412 64.0139C305.752 74.4914 312.372 81.4222 320.839 85.4649M320.839 85.4649C345.927 97.4421 387.239 84.0689 381.562 62.4706C375.033 37.6304 326.783 51.5149 320.839 85.4649ZM320.839 85.4649C319.871 90.9976 320.026 97.0633 321.668 103.581C326.073 121.066 338.294 130.695 351.558 134.701M351.558 134.701C373.577 141.353 398.467 132.512 395.235 118.403C390.659 98.4265 354.708 110.535 351.558 134.701ZM351.558 134.701C351.143 137.883 351.297 141.274 352.166 144.828C359.634 175.376 399.536 166.836 399.536 166.836" stroke="#D1D5DB" stroke-opacity="0.15" stroke-width="10.8"/>
<path d="M98.1878 441.389C46.65 433.593 37.6325 545.528 -13.9004 537.699C-45.5141 532.897 -47.0712 483.023 -78.7159 487.616C-108.901 491.998 -102.428 531.182 -127.336 548.804C-195.779 597.223 -281.049 416.457 -334.621 493.171C-412.425 604.584 -147.007 611.211 -192.101 697.391C-216.716 744.433 -314.448 719.839 -305.546 772.191C-292.159 850.923 -159.718 744.095 -109.437 803.175C-75.8103 842.686 -123.566 911.346 -75.9014 931.779C-20.3778 955.582 -20.7959 845.875 35.7604 824.649C136.615 786.797 207.735 1010.14 287.432 937.604C367.319 864.9 157.633 776.447 197.36 675.95C216.63 627.201 311.841 627.39 292.569 578.642C272.137 526.959 188.131 604.099 141.369 574.127C94.8907 544.338 152.757 449.644 98.1878 441.389Z" stroke="#D1D5DB" stroke-opacity="0.15" stroke-width="27" stroke-dasharray="4.5 4.5"/>
</svg>
