<svg width="393" height="736" viewBox="0 0 393 736" fill="none" xmlns="http://www.w3.org/2000/svg">
<path d="M348.862 5.57703C348.862 5.57703 294.139 22.4951 303.412 64.0139C305.752 74.4914 312.372 81.4222 320.839 85.4649M320.839 85.4649C345.927 97.4421 387.239 84.0689 381.562 62.4706C375.033 37.6304 326.783 51.5149 320.839 85.4649ZM320.839 85.4649C319.871 90.9976 320.026 97.0633 321.668 103.581C326.073 121.066 338.294 130.695 351.558 134.701M351.558 134.701C373.577 141.353 398.467 132.512 395.235 118.403C390.659 98.4265 354.708 110.535 351.558 134.701ZM351.558 134.701C351.143 137.883 351.297 141.274 352.166 144.828C359.634 175.376 399.536 166.836 399.536 166.836" stroke="#D1D5DB" stroke-opacity="0.15" stroke-width="10.8"/>
<path d="M37.1878 473.389C-14.35 465.593 -23.3675 577.528 -74.9004 569.699C-106.514 564.897 -108.071 515.023 -139.716 519.616C-169.901 523.998 -163.428 563.182 -188.336 580.804C-256.779 629.223 -342.049 448.457 -395.621 525.171C-473.425 636.584 -208.007 643.211 -253.101 729.391C-277.716 776.433 -375.448 751.839 -366.546 804.191C-353.159 882.923 -220.718 776.095 -170.437 835.175C-136.81 874.686 -184.566 943.346 -136.901 963.779C-81.3778 987.582 -81.7959 877.875 -25.2396 856.649C75.6154 818.797 146.735 1042.14 226.432 969.604C306.319 896.9 96.6334 808.447 136.36 707.95C155.63 659.201 250.841 659.39 231.569 610.642C211.137 558.959 127.131 636.099 80.3691 606.127C33.8907 576.338 91.7571 481.644 37.1878 473.389Z" stroke="#D1D5DB" stroke-opacity="0.15" stroke-width="27" stroke-dasharray="4.5 4.5"/>
</svg>
