<svg width="182" height="43" viewBox="0 0 182 43" fill="none" xmlns="http://www.w3.org/2000/svg">
<path d="M14.2055 35.7129C7.03059 35.7129 1.74846 30.0786 1.74846 23.3439V23.2558C1.74846 16.5211 6.98657 10.8428 14.5136 10.8428C19.3996 10.8428 22.6569 12.9557 24.6817 16.169L19.0034 20.3947C17.859 18.81 16.5824 17.8857 14.5576 17.8857C11.8725 17.8857 9.89174 20.2626 9.89174 23.1678V23.2558C9.89174 26.3371 11.8285 28.67 14.6457 28.67C16.6265 28.67 17.903 27.7456 19.2235 26.205L24.8138 30.2547C22.6129 33.512 19.4436 35.7129 14.2055 35.7129ZM37.5812 35.7129C29.9661 35.7129 24.4639 30.1226 24.4639 23.3439V23.2558C24.4639 16.4771 30.0101 10.7988 37.6692 10.7988C45.2843 10.7988 50.7865 16.3891 50.7865 23.1678V23.2558C50.7865 30.0346 45.2402 35.7129 37.5812 35.7129ZM37.6692 28.626C40.7064 28.626 42.6432 26.205 42.6432 23.3439V23.2558C42.6432 20.3507 40.5303 17.8857 37.5812 17.8857C34.5439 17.8857 32.6072 20.3066 32.6072 23.1678V23.2558C32.6072 26.161 34.72 28.626 37.6692 28.626ZM52.7943 35.1406V3.00767H61.1577V35.1406H52.7943ZM64.2903 35.1406V3.00767H72.6537V35.1406H64.2903ZM82.4331 35.6688C77.8992 35.6688 74.4218 33.0718 74.4218 28.3179V28.2298C74.4218 23.2999 78.1633 20.7468 83.7536 20.7468C85.9545 20.7468 88.1113 21.187 89.4759 21.6712V21.275C89.4759 18.81 87.9353 17.4015 84.722 17.4015C82.213 17.4015 80.2762 17.8857 78.1633 18.722L76.4466 12.8236C79.1317 11.7232 81.9929 10.9749 86.0865 10.9749C90.3562 10.9749 93.2614 11.9873 95.1542 13.8801C96.9589 15.6408 97.7072 18.1058 97.7072 21.4511V35.1406H89.4319V32.6756C87.8032 34.4804 85.5583 35.6688 82.4331 35.6688ZM85.4263 30.4307C87.8472 30.4307 89.5639 28.8901 89.5639 26.5131V25.4127C88.7276 25.0606 87.5391 24.7965 86.3066 24.7965C83.8856 24.7965 82.4771 25.9849 82.4771 27.7456V27.8337C82.4771 29.4623 83.7096 30.4307 85.4263 30.4307ZM115.886 35.6688C112.277 35.6688 110.164 34.0402 108.623 32.2355V35.1406H100.26V3.00767H108.623V14.4963C110.252 12.5155 112.277 10.7988 115.842 10.7988C121.521 10.7988 126.407 15.5087 126.407 23.1238V23.2118C126.407 30.9589 121.521 35.6688 115.886 35.6688ZM113.289 28.67C116.018 28.67 118.175 26.4691 118.175 23.2558V23.1678C118.175 20.0425 116.018 17.7976 113.289 17.7976C110.604 17.7976 108.447 20.0425 108.447 23.1678V23.2558C108.447 26.4251 110.604 28.67 113.289 28.67ZM128.306 9.17015V3.00767H137.021V9.17015H128.306ZM128.482 35.1406V11.327H136.845V35.1406H128.482ZM141.298 35.1406V18.0177H138.525V11.4591H141.298V10.9309C141.298 8.20176 141.915 6.17695 143.323 4.76838C144.776 3.31579 146.713 2.69954 149.53 2.69954C152.083 2.69954 153.667 2.96365 154.988 3.35981V9.25819C154.02 8.95006 153.051 8.77399 151.863 8.77399C150.322 8.77399 149.486 9.47828 149.486 11.0189V11.5911H154.944V18.0177H149.618V35.1406H141.298ZM162.94 42.3155C159.991 42.3155 157.482 41.4792 155.281 40.2467L157.878 34.3923C159.199 35.1846 160.607 35.6688 161.532 35.6688C162.368 35.6688 162.94 35.4487 163.468 34.7004L154.137 11.327H162.896L167.65 25.6768L172.14 11.327H180.723L172.008 34.5684C169.939 40.1146 167.694 42.3155 162.94 42.3155Z" fill="#DA84FE"/>
<path d="M14.2055 33.7129C7.03059 33.7129 1.74846 28.0786 1.74846 21.3439V21.2558C1.74846 14.5211 6.98657 8.84283 14.5136 8.84283C19.3996 8.84283 22.6569 10.9557 24.6817 14.169L19.0034 18.3947C17.859 16.81 16.5824 15.8857 14.5576 15.8857C11.8725 15.8857 9.89174 18.2626 9.89174 21.1678V21.2558C9.89174 24.3371 11.8285 26.67 14.6457 26.67C16.6265 26.67 17.903 25.7456 19.2235 24.205L24.8138 28.2547C22.6129 31.512 19.4436 33.7129 14.2055 33.7129ZM37.5812 33.7129C29.9661 33.7129 24.4639 28.1226 24.4639 21.3439V21.2558C24.4639 14.4771 30.0101 8.79881 37.6692 8.79881C45.2843 8.79881 50.7865 14.3891 50.7865 21.1678V21.2558C50.7865 28.0346 45.2402 33.7129 37.5812 33.7129ZM37.6692 26.626C40.7064 26.626 42.6432 24.205 42.6432 21.3439V21.2558C42.6432 18.3507 40.5303 15.8857 37.5812 15.8857C34.5439 15.8857 32.6072 18.3066 32.6072 21.1678V21.2558C32.6072 24.161 34.72 26.626 37.6692 26.626ZM52.7943 33.1406V1.00767H61.1577V33.1406H52.7943ZM64.2903 33.1406V1.00767H72.6537V33.1406H64.2903ZM82.4331 33.6688C77.8992 33.6688 74.4218 31.0718 74.4218 26.3179V26.2298C74.4218 21.2999 78.1633 18.7468 83.7536 18.7468C85.9545 18.7468 88.1113 19.187 89.4759 19.6712V19.275C89.4759 16.81 87.9353 15.4015 84.722 15.4015C82.213 15.4015 80.2762 15.8857 78.1633 16.722L76.4466 10.8236C79.1317 9.72318 81.9929 8.97488 86.0865 8.97488C90.3562 8.97488 93.2614 9.98729 95.1542 11.8801C96.9589 13.6408 97.7072 16.1058 97.7072 19.4511V33.1406H89.4319V30.6756C87.8032 32.4804 85.5583 33.6688 82.4331 33.6688ZM85.4263 28.4307C87.8472 28.4307 89.5639 26.8901 89.5639 24.5131V23.4127C88.7276 23.0606 87.5391 22.7965 86.3066 22.7965C83.8856 22.7965 82.4771 23.9849 82.4771 25.7456V25.8337C82.4771 27.4623 83.7096 28.4307 85.4263 28.4307ZM115.886 33.6688C112.277 33.6688 110.164 32.0402 108.623 30.2355V33.1406H100.26V1.00767H108.623V12.4963C110.252 10.5155 112.277 8.79881 115.842 8.79881C121.521 8.79881 126.407 13.5087 126.407 21.1238V21.2118C126.407 28.9589 121.521 33.6688 115.886 33.6688ZM113.289 26.67C116.018 26.67 118.175 24.4691 118.175 21.2558V21.1678C118.175 18.0425 116.018 15.7976 113.289 15.7976C110.604 15.7976 108.447 18.0425 108.447 21.1678V21.2558C108.447 24.4251 110.604 26.67 113.289 26.67ZM128.306 7.17015V1.00767H137.021V7.17015H128.306ZM128.482 33.1406V9.32702H136.845V33.1406H128.482ZM141.298 33.1406V16.0177H138.525V9.45908H141.298V8.93086C141.298 6.20176 141.915 4.17695 143.323 2.76838C144.776 1.31579 146.713 0.699544 149.53 0.699544C152.083 0.699544 153.667 0.963652 154.988 1.35981V7.25819C154.02 6.95006 153.051 6.77399 151.863 6.77399C150.322 6.77399 149.486 7.47828 149.486 9.0189V9.59113H154.944V16.0177H149.618V33.1406H141.298ZM162.94 40.3155C159.991 40.3155 157.482 39.4792 155.281 38.2467L157.878 32.3923C159.199 33.1846 160.607 33.6688 161.532 33.6688C162.368 33.6688 162.94 33.4487 163.468 32.7004L154.137 9.32702H162.896L167.65 23.6768L172.14 9.32702H180.723L172.008 32.5684C169.939 38.1146 167.694 40.3155 162.94 40.3155Z" fill="white"/>
</svg>
