<svg width="1025" height="1025" viewBox="0 0 1025 1025" fill="none" xmlns="http://www.w3.org/2000/svg">
<g clip-path="url(#clip0_3002_1557)">
<rect width="1024" height="1024" transform="translate(0.5 0.5)" fill="#5822EE"/>
<path d="M247.512 17.5259C247.512 17.5259 -12.9661 98.0541 31.1731 295.679C42.3119 345.551 73.8193 378.541 114.125 397.783M114.125 397.783C233.538 454.794 430.179 391.139 403.157 288.333C372.079 170.097 142.418 236.185 114.125 397.783ZM114.125 397.783C109.514 424.119 110.252 452.991 118.068 484.015C139.037 567.242 197.21 613.072 260.342 632.144M260.342 632.144C365.149 663.805 483.625 621.721 468.242 554.567C446.46 459.48 275.336 517.113 260.342 632.144ZM260.342 632.144C258.368 647.288 259.1 663.427 263.236 680.344C298.783 825.752 488.712 785.102 488.712 785.102" stroke="#6834F7" stroke-width="63.2099"/>
<path d="M171.821 598.847C138.85 598.847 114.578 572.956 114.578 542.009V541.604C114.578 510.657 138.648 484.563 173.236 484.563C195.689 484.563 210.657 494.273 219.961 509.038L193.868 528.456C188.609 521.175 182.743 516.927 173.439 516.927C161.1 516.927 151.998 527.85 151.998 541.2V541.604C151.998 555.763 160.898 566.483 173.843 566.483C182.946 566.483 188.811 562.236 194.88 555.156L220.568 573.765C210.454 588.733 195.891 598.847 171.821 598.847ZM277.95 598.847C242.957 598.847 217.673 573.158 217.673 542.009V541.604C217.673 510.454 243.159 484.361 278.354 484.361C313.347 484.361 338.631 510.05 338.631 541.2V541.604C338.631 572.754 313.145 598.847 277.95 598.847ZM278.354 566.281C292.311 566.281 301.211 555.156 301.211 542.009V541.604C301.211 528.254 291.502 516.927 277.95 516.927C263.993 516.927 255.093 528.052 255.093 541.2V541.604C255.093 554.954 264.802 566.281 278.354 566.281ZM346.571 596.217V448.559H385.002V596.217H346.571ZM398.11 596.217V448.559H436.542V596.217H398.11ZM480.193 598.645C459.359 598.645 443.38 586.711 443.38 564.865V564.461C443.38 541.806 460.573 530.075 486.261 530.075C496.375 530.075 506.286 532.097 512.557 534.322V532.502C512.557 521.175 505.477 514.702 490.711 514.702C479.182 514.702 470.282 516.927 460.573 520.77L452.684 493.666C465.023 488.609 478.17 485.17 496.982 485.17C516.602 485.17 529.952 489.823 538.65 498.52C546.943 506.611 550.381 517.938 550.381 533.311V596.217H512.354V584.89C504.87 593.183 494.554 598.645 480.193 598.645ZM493.948 574.574C505.073 574.574 512.961 567.495 512.961 556.572V551.515C509.118 549.897 503.657 548.684 497.993 548.684C486.868 548.684 480.395 554.145 480.395 562.236V562.64C480.395 570.124 486.059 574.574 493.948 574.574ZM632.632 598.645C616.045 598.645 606.336 591.161 599.257 582.867V596.217H560.825V448.559H599.257V501.352C606.741 492.25 616.045 484.361 632.429 484.361C658.522 484.361 680.975 506.004 680.975 540.997V541.402C680.975 577.002 658.522 598.645 632.632 598.645ZM620.698 566.483C633.238 566.483 643.15 556.37 643.15 541.604V541.2C643.15 526.838 633.238 516.522 620.698 516.522C608.359 516.522 598.448 526.838 598.448 541.2V541.604C598.448 556.168 608.359 566.483 620.698 566.483ZM688.414 476.877V448.559H728.464V476.877H688.414ZM689.223 596.217V486.788H727.655V596.217H689.223ZM746.831 596.217V517.534H734.088V487.395H746.831V484.968C746.831 472.427 749.663 463.123 756.136 456.65C762.811 449.975 771.711 447.143 784.656 447.143C796.388 447.143 803.67 448.357 809.738 450.177V477.282C805.288 475.866 800.838 475.057 795.377 475.057C788.297 475.057 784.454 478.293 784.454 485.373V488.002H809.536V517.534H785.061V596.217H746.831ZM844.993 629.188C831.441 629.188 819.911 625.345 809.798 619.681L821.732 592.779C827.8 596.42 834.273 598.645 838.52 598.645C842.364 598.645 844.993 597.633 847.42 594.195L804.539 486.788H844.791L866.636 552.729L887.268 486.788H926.711L886.661 593.588C877.154 619.074 866.838 629.188 844.993 629.188Z" fill="#DA84FE"/>
<path d="M171.821 583.821C138.85 583.821 114.578 557.93 114.578 526.983V526.578C114.578 495.631 138.648 469.537 173.236 469.537C195.689 469.537 210.657 479.247 219.961 494.012L193.868 513.43C188.609 506.149 182.743 501.901 173.439 501.901C161.1 501.901 151.998 512.824 151.998 526.174V526.578C151.998 540.737 160.898 551.457 173.843 551.457C182.946 551.457 188.811 547.21 194.88 540.13L220.568 558.739C210.454 573.707 195.891 583.821 171.821 583.821ZM277.95 583.821C242.957 583.821 217.673 558.132 217.673 526.983V526.578C217.673 495.428 243.159 469.335 278.354 469.335C313.347 469.335 338.631 495.024 338.631 526.174V526.578C338.631 557.728 313.145 583.821 277.95 583.821ZM278.354 551.255C292.311 551.255 301.211 540.13 301.211 526.983V526.578C301.211 513.228 291.502 501.901 277.95 501.901C263.993 501.901 255.093 513.026 255.093 526.174V526.578C255.093 539.928 264.802 551.255 278.354 551.255ZM346.571 581.191V433.533H385.002V581.191H346.571ZM398.11 581.191V433.533H436.542V581.191H398.11ZM480.193 583.619C459.359 583.619 443.38 571.685 443.38 549.839V549.435C443.38 526.78 460.573 515.049 486.261 515.049C496.375 515.049 506.286 517.071 512.557 519.296V517.476C512.557 506.149 505.477 499.676 490.711 499.676C479.182 499.676 470.282 501.901 460.573 505.744L452.684 478.64C465.023 473.583 478.17 470.144 496.982 470.144C516.602 470.144 529.952 474.797 538.65 483.494C546.943 491.585 550.381 502.912 550.381 518.285V581.191H512.354V569.864C504.87 578.157 494.554 583.619 480.193 583.619ZM493.948 559.548C505.073 559.548 512.961 552.469 512.961 541.546V536.489C509.118 534.871 503.657 533.658 497.993 533.658C486.868 533.658 480.395 539.119 480.395 547.21V547.614C480.395 555.098 486.059 559.548 493.948 559.548ZM632.632 583.619C616.045 583.619 606.336 576.135 599.257 567.841V581.191H560.825V433.533H599.257V486.326C606.741 477.224 616.045 469.335 632.429 469.335C658.522 469.335 680.975 490.978 680.975 525.971V526.376C680.975 561.976 658.522 583.619 632.632 583.619ZM620.698 551.457C633.238 551.457 643.15 541.344 643.15 526.578V526.174C643.15 511.812 633.238 501.496 620.698 501.496C608.359 501.496 598.448 511.812 598.448 526.174V526.578C598.448 541.142 608.359 551.457 620.698 551.457ZM688.414 461.851V433.533H728.464V461.851H688.414ZM689.223 581.191V471.762H727.655V581.191H689.223ZM746.831 581.191V502.508H734.088V472.369H746.831V469.942C746.831 457.401 749.663 448.097 756.136 441.624C762.811 434.949 771.711 432.117 784.656 432.117C796.388 432.117 803.67 433.331 809.738 435.151V462.256C805.288 460.84 800.838 460.031 795.377 460.031C788.297 460.031 784.454 463.267 784.454 470.347V472.976H809.536V502.508H785.061V581.191H746.831ZM844.993 614.162C831.441 614.162 819.911 610.319 809.798 604.655L821.732 577.753C827.8 581.394 834.273 583.619 838.52 583.619C842.364 583.619 844.993 582.607 847.42 579.169L804.539 471.762H844.791L866.636 537.703L887.268 471.762H926.711L886.661 578.562C877.154 604.048 866.838 614.162 844.993 614.162Z" fill="white"/>
<path d="M256.733 864.199L169.91 978.252M192.215 816.793C148.712 850.306 -14.2296 975.833 -97.9622 1040.34M158.494 745.661L-42.9467 821.309" stroke="#CDF563" stroke-width="75.8518"/>
<path d="M718.775 216.974L820.924 79.8364M797.969 277.179L1118.59 19.5565M838.567 340.177L1095.63 200.601" stroke="#CDF563" stroke-width="75.8519"/>
<path d="M942.55 746.942C821.486 758.595 930.196 940.508 930.196 940.508C930.196 940.508 688.563 766.897 695.975 1014.84C703.387 1262.78 923.278 1071.21 923.278 1071.21C923.278 1071.21 734.023 1245.82 923.278 1285.73C1112.53 1325.64 1026.55 1071.21 1026.55 1071.21C1026.55 1071.21 1140.7 1285.73 1251.39 1136.07C1362.07 986.405 1082.88 990.396 1082.88 990.396C1082.88 990.396 1357.65 982.413 1237.06 819.778C1116.46 657.143 1026.55 907.581 1026.55 907.581C1026.55 907.581 1063.61 735.289 942.55 746.942Z" stroke="#F674A2" stroke-width="50.5679"/>
<path d="M-157.722 -423.259L-212.819 -783.303L-324.51 -405.542L-737.767 -553.184L-456.509 -260.955L-871.797 -4.36243L-392.54 -96.0025V341.833L-180.327 -96.0025L278.623 81.1682L-76.3541 -260.955L227.854 -508.383L-157.722 -423.259Z" stroke="#DA84FE" stroke-width="63.2099"/>
</g>
<defs>
<clipPath id="clip0_3002_1557">
<rect width="1024" height="1024" fill="white" transform="translate(0.5 0.5)"/>
</clipPath>
</defs>
</svg>
