<svg width="35" height="35" viewBox="0 0 35 35" fill="none" xmlns="http://www.w3.org/2000/svg">
<path d="M24.8476 24.6518L24.8475 24.6517L24.8431 24.6591C24.6377 25.0009 24.1944 25.1073 23.8341 24.8919C19.8615 22.4755 14.9019 21.9467 9.08743 23.259C8.68711 23.3438 8.30282 23.0997 8.2214 22.7202C8.13569 22.3207 8.37945 21.9359 8.76064 21.8543L8.76065 21.8543L8.7647 21.8534C15.0066 20.4268 20.3297 21.0402 24.5882 23.65L24.5881 23.6501L24.5952 23.6542C24.9631 23.8662 25.0691 24.3061 24.8476 24.6518ZM8.24725 16.6648L8.24726 16.6649L8.25173 16.6635C14.1747 14.8733 21.5459 15.7331 26.5808 18.8198C27.0107 19.0865 27.1673 19.69 26.8775 20.1621C26.5923 20.6269 25.9878 20.7695 25.5106 20.4951C20.9925 17.7093 14.1363 16.9142 8.81058 18.533C8.27033 18.6858 7.73307 18.3915 7.58456 17.8895C7.43152 17.3523 7.72301 16.8144 8.24725 16.6648ZM27.4641 15.3693L27.4637 15.3691C24.7461 13.7607 21.1684 12.8908 17.6431 12.6127C14.1166 12.3345 10.6089 12.6459 8.019 13.4279L8.01899 13.4278L8.01515 13.4291C7.37048 13.6332 6.66596 13.2564 6.45732 12.5992C6.25336 11.9567 6.62912 11.2538 7.28674 11.0446C10.1644 10.171 14.0131 9.81759 17.9059 10.1355C21.8004 10.4535 25.7094 11.441 28.7172 13.224C29.3037 13.5725 29.4953 14.3339 29.1453 14.9218L29.1452 14.9217L29.1406 14.93C28.8111 15.5255 28.0543 15.7198 27.4641 15.3693ZM17.5208 0.7C8.23646 0.7 0.7 8.22643 0.7 17.5C0.7 26.7935 8.23669 34.3 17.5208 34.3C26.8249 34.3 34.3412 26.7737 34.3416 17.5007C34.3617 8.22621 26.8245 0.7 17.5208 0.7Z" stroke="url(#paint0_linear_12_80)" stroke-width="0.6"/>
<defs>
<linearGradient id="paint0_linear_12_80" x1="1" y1="1" x2="34" y2="34" gradientUnits="userSpaceOnUse">
<stop stop-color="white"/>
<stop offset="1" stop-color="#1ED760"/>
</linearGradient>
</defs>
</svg>
