<svg width="17" height="13" viewBox="0 0 17 13" fill="none" xmlns="http://www.w3.org/2000/svg">
<path d="M6.12492 7.88546C4.27242 7.88546 0.583252 8.81171 0.583252 10.6563V12.0417H11.6666V10.6563C11.6666 8.81171 7.97742 7.88546 6.12492 7.88546ZM2.43575 10.4584C3.10075 9.99921 4.70784 9.46879 6.12492 9.46879C7.542 9.46879 9.14909 9.99921 9.81409 10.4584H2.43575ZM6.12492 6.50004C7.65283 6.50004 8.89575 5.25712 8.89575 3.72921C8.89575 2.20129 7.65283 0.958374 6.12492 0.958374C4.597 0.958374 3.35409 2.20129 3.35409 3.72921C3.35409 5.25712 4.597 6.50004 6.12492 6.50004ZM6.12492 2.54171C6.782 2.54171 7.31242 3.07212 7.31242 3.72921C7.31242 4.38629 6.782 4.91671 6.12492 4.91671C5.46783 4.91671 4.93742 4.38629 4.93742 3.72921C4.93742 3.07212 5.46783 2.54171 6.12492 2.54171ZM11.6983 7.93296C12.6166 8.59796 13.2499 9.48462 13.2499 10.6563V12.0417H16.4166V10.6563C16.4166 9.05712 13.6458 8.14671 11.6983 7.93296ZM10.8749 6.50004C12.4028 6.50004 13.6458 5.25712 13.6458 3.72921C13.6458 2.20129 12.4028 0.958374 10.8749 0.958374C10.4474 0.958374 10.0516 1.06129 9.68742 1.23546C10.1862 1.94004 10.4791 2.80296 10.4791 3.72921C10.4791 4.65546 10.1862 5.51837 9.68742 6.22296C10.0516 6.39712 10.4474 6.50004 10.8749 6.50004Z" fill="#F8F8F8"/>
</svg>
