<svg width="168" height="277" viewBox="0 0 168 277" fill="none" xmlns="http://www.w3.org/2000/svg">
<g style="mix-blend-mode:overlay" opacity="0.59">
<path fill-rule="evenodd" clip-rule="evenodd" d="M-26.9049 232.825C-36.5479 172.926 -34.7327 117.024 -24.0211 75.0698C-18.6652 54.0921 -11.0909 36.6251 -1.63263 23.8907C7.82373 11.1587 19.1422 3.18266 31.9964 1.11331C44.8506 -0.956041 58.1004 3.06482 71.0748 12.1857C84.0517 21.3084 96.7252 35.5157 108.394 53.7526C131.731 90.225 150.999 142.734 160.642 202.633C170.285 262.532 168.47 318.434 157.758 360.388C152.403 381.366 144.828 398.833 135.37 411.567C125.914 424.299 114.595 432.275 101.741 434.345C88.8868 436.414 75.6369 432.393 62.6626 423.272C49.6856 414.149 37.0121 399.942 25.3431 381.705C2.00604 345.233 -17.262 292.724 -26.9049 232.825ZM-27.382 232.902C-46.6838 113.005 -20.1336 9.01615 31.9196 0.636269C83.9728 -7.74361 141.817 82.6589 161.119 202.556C180.421 322.453 153.871 426.442 101.818 434.822C49.7646 443.201 -8.08011 352.799 -27.382 232.902ZM1.60073 229.705C-5.31209 186.765 -4.05806 146.704 3.53933 116.653C7.33824 101.627 12.7173 89.1265 19.4342 80.0217C26.1494 70.9194 34.1801 65.2367 43.2919 63.7699C52.4036 62.303 61.8121 65.1782 71.0446 71.7131C80.2796 78.2498 89.3099 88.4301 97.6328 101.505C114.277 127.653 128.041 165.297 134.954 208.237C141.867 251.177 140.613 291.239 133.015 321.289C129.216 336.316 123.837 348.816 117.12 357.92C110.405 367.023 102.374 372.705 93.2626 374.172C84.1509 375.639 74.7424 372.764 65.5099 366.229C56.2749 359.692 47.2446 349.512 38.9218 336.437C22.277 310.289 8.51355 272.645 1.60073 229.705ZM1.12369 229.782C-12.7178 143.803 6.1272 69.2635 43.2151 63.2928C80.303 57.3222 121.589 122.182 135.431 208.16C149.272 294.139 130.427 368.679 93.3394 374.649C56.2515 380.62 14.9651 315.761 1.12369 229.782Z" fill="white"/>
</g>
</svg>
