<svg width="33" height="93" viewBox="0 0 33 93" fill="none" xmlns="http://www.w3.org/2000/svg">
<g style="mix-blend-mode:overlay" opacity="0.59">
<path fill-rule="evenodd" clip-rule="evenodd" d="M16.2672 28.1321C25.0993 39.5907 30.3637 52.0401 31.7539 62.8884C33.1458 73.75 30.6495 82.906 24.1073 87.9487C17.5651 92.9913 8.07525 93.074 -2.07396 88.9623C-12.2107 84.8558 -22.9094 76.5951 -31.7415 65.1365C-40.5736 53.6779 -45.838 41.2284 -47.2282 30.3802C-48.6201 19.5186 -46.1238 10.3625 -39.5816 5.3199C-33.0394 0.277283 -23.5495 0.194587 -13.4003 4.30622C-3.26361 8.41278 7.43514 16.6735 16.2672 28.1321ZM16.6499 27.8371C34.4001 50.8658 37.8709 77.95 24.4023 88.3314C10.9337 98.7127 -14.3741 88.4601 -32.1242 65.4315C-49.8743 42.4028 -53.3452 15.3186 -39.8766 4.9372C-26.408 -5.44419 -1.10019 4.80844 16.6499 27.8371ZM8.73959 33.4975C15.0613 41.6992 18.8375 50.5953 19.8509 58.3314C20.8661 66.0814 19.1037 72.5647 14.4989 76.114C9.89404 79.6634 3.17568 79.7169 -4.06042 76.7618C-11.2835 73.812 -18.9249 67.8952 -25.2466 59.6935C-31.5683 51.4919 -35.3445 42.5958 -36.3579 34.8597C-37.3732 27.1097 -35.6107 20.6264 -31.0059 17.077C-26.4011 13.5277 -19.6827 13.4741 -12.4466 16.4292C-5.22354 19.379 2.41788 25.2959 8.73959 33.4975ZM9.12229 33.2025C21.851 49.7165 24.3902 69.1 14.7939 76.4967C5.19747 83.8935 -12.9006 76.5025 -25.6293 59.9885C-38.358 43.4746 -40.8973 24.0911 -31.3009 16.6943C-21.7045 9.2976 -3.60643 16.6886 9.12229 33.2025Z" fill="white"/>
</g>
</svg>
