<svg width="140" height="291" viewBox="0 0 140 291" fill="none" xmlns="http://www.w3.org/2000/svg">
<g style="mix-blend-mode:overlay" opacity="0.59">
<path fill-rule="evenodd" clip-rule="evenodd" d="M34.6531 111.11C55.1101 72.1907 80.9672 40.839 106.215 21.6054C131.498 2.34544 156.01 -4.65547 173.893 4.74414C191.776 14.1437 199.909 38.3043 198.381 70.0505C196.856 101.753 185.694 140.829 165.237 179.748C144.78 218.668 118.923 250.019 93.6752 269.253C68.3926 288.513 43.8799 295.514 25.9973 286.114C8.11461 276.715 -0.018792 252.554 1.50889 220.808C3.03448 189.105 14.1961 150.029 34.6531 111.11ZM34.2254 110.885C75.1898 32.9507 137.822 -14.7617 174.118 4.31643C210.414 23.3946 206.629 102.039 165.665 179.973C124.7 257.908 62.0685 305.62 25.7725 286.542C-10.5235 267.464 -6.73904 188.82 34.2254 110.885ZM53.8811 122.405C68.544 94.5088 87.0408 72.0252 105.073 58.2184C123.14 44.3844 140.58 39.3712 153.243 46.0276C165.907 52.6839 171.667 69.8915 170.517 92.6179C169.37 115.3 161.339 143.284 146.676 171.18C132.013 199.076 113.517 221.56 95.4847 235.367C77.4173 249.201 59.9776 254.214 47.3139 247.558C34.6503 240.901 28.8904 223.694 30.0401 200.967C31.1875 178.286 39.2182 150.301 53.8811 122.405ZM53.4534 122.18C82.8292 66.2928 127.607 32.0067 153.468 45.5999C179.329 59.1931 176.48 115.518 147.104 171.405C117.728 227.292 72.95 261.578 47.0891 247.985C21.2282 234.392 24.0776 178.067 53.4534 122.18Z" fill="white"/>
</g>
</svg>
