<svg width="62" height="72" viewBox="0 0 62 72" fill="none" xmlns="http://www.w3.org/2000/svg">
<g style="mix-blend-mode:overlay" opacity="0.59">
<path fill-rule="evenodd" clip-rule="evenodd" d="M48.1808 22.8238C55.1548 31.8717 59.4931 41.5554 60.8866 49.881C62.284 58.2296 60.7079 65.0795 56.0551 68.6657C51.4023 72.252 44.3769 72.0321 36.6593 68.5551C28.9629 65.0876 20.703 58.4266 13.729 49.3787C6.75505 40.3309 2.41679 30.6471 1.02324 22.3215C-0.374158 13.973 1.202 7.1231 5.85476 3.53682C10.5075 -0.0494473 17.5329 0.170455 25.2505 3.6475C32.9469 7.11499 41.2069 13.7759 48.1808 22.8238ZM48.5635 22.5288C62.5889 40.725 66.075 61.5526 56.3501 69.0484C46.6251 76.5443 27.3717 67.8699 13.3463 49.6737C-0.679035 31.4775 -4.16519 10.65 5.55978 3.15412C15.2847 -4.34173 34.5382 4.33263 48.5635 22.5288ZM42.7308 26.6757C47.7212 33.1501 50.8302 40.0674 51.8396 46.0007C52.8531 51.9576 51.7369 56.7872 48.4834 59.295C45.2299 61.8027 40.2753 61.6524 34.7727 59.1556C29.2921 56.6687 23.3944 51.9009 18.404 45.4265C13.4136 38.952 10.3046 32.0347 9.29518 26.1015C8.28172 20.1446 9.39788 15.315 12.6514 12.8072C15.9049 10.2994 20.8595 10.4498 26.3621 12.9466C31.8427 15.4335 37.7404 20.2013 42.7308 26.6757ZM43.1135 26.3807C53.1712 39.4293 55.7074 54.3369 48.7784 59.6777C41.8494 65.0185 28.0789 58.77 18.0213 45.7214C7.96362 32.6728 5.42738 17.7653 12.3564 12.4245C19.2855 7.08371 33.0559 13.3321 43.1135 26.3807Z" fill="white"/>
</g>
</svg>
