<svg width="194" height="245" viewBox="0 0 194 245" fill="none" xmlns="http://www.w3.org/2000/svg">
<g style="mix-blend-mode:overlay" opacity="0.59">
<path fill-rule="evenodd" clip-rule="evenodd" d="M175.732 27.5209C203.129 77.5881 221.247 126.551 228.401 165.23C231.979 184.572 232.809 201.314 230.705 214.326C228.6 227.346 223.574 236.543 215.522 240.949C207.47 245.355 197.015 244.63 184.915 239.383C172.822 234.14 159.169 224.414 144.807 210.973C116.088 184.095 84.6183 142.438 57.2212 92.3706C29.8241 42.3034 11.7064 -6.65971 4.55209 -45.3384C0.97443 -64.6804 0.143669 -81.4229 2.24762 -94.435C4.35283 -107.455 9.37869 -116.651 17.4307 -121.057C25.4827 -125.463 35.9376 -124.738 48.0381 -119.492C60.1314 -114.249 73.7845 -104.523 88.1459 -91.0814C116.865 -64.203 148.335 -22.5463 175.732 27.5209ZM176.156 27.2889C230.985 127.488 248.714 223.337 215.754 241.373C182.794 259.408 111.627 192.802 56.7973 92.6026C1.96772 -7.59669 -15.7612 -103.445 17.1987 -121.481C50.1586 -139.517 121.326 -72.9103 176.156 27.2889ZM157.176 36.1243C176.817 72.0188 189.834 107.1 195.011 134.792C197.6 148.641 198.223 160.614 196.75 169.906C195.276 179.206 191.721 185.729 186.039 188.839C180.357 191.948 172.946 191.425 164.318 187.653C155.699 183.883 145.95 176.904 135.683 167.257C115.151 147.968 92.6222 118.091 72.9805 82.1964C53.3388 46.3019 40.3218 11.2205 35.145 -16.4716C32.5561 -30.3203 31.9334 -42.2933 33.4061 -51.5851C34.88 -60.885 38.4356 -67.4088 44.1174 -70.5179C49.7992 -73.627 57.2105 -73.1044 65.8378 -69.3319C74.4574 -65.5628 84.2056 -58.5832 94.4736 -48.9365C115.005 -29.6468 137.534 0.229799 157.176 36.1243ZM157.599 35.8924C196.918 107.746 209.755 176.412 186.271 189.262C162.787 202.113 111.875 154.282 72.5566 82.4283C33.238 10.5749 20.4015 -58.0912 43.8854 -70.9417C67.3693 -83.7923 118.281 -35.961 157.599 35.8924Z" fill="white"/>
</g>
</svg>
