<svg width="43" height="70" viewBox="0 0 43 70" fill="none" xmlns="http://www.w3.org/2000/svg">
<g style="mix-blend-mode:overlay" opacity="0.59">
<path fill-rule="evenodd" clip-rule="evenodd" d="M39.986 28.8209C42.6045 38.553 42.8917 47.8996 41.2613 55.1347C39.6253 62.3945 36.0988 67.3946 31.2043 68.7115C26.3099 70.0284 20.7505 67.4729 15.6925 62.0142C10.6517 56.574 6.21014 48.3452 3.59163 38.613C0.973131 28.8808 0.685933 19.5342 2.31636 12.2991C3.95233 5.03938 7.47886 0.0392111 12.3733 -1.27767C17.2678 -2.59455 22.8272 -0.0390232 27.8851 5.41967C32.9259 10.8599 37.3675 19.0887 39.986 28.8209ZM40.4526 28.6953C45.722 48.28 41.6376 66.4048 31.3299 69.1781C21.0222 71.9515 8.39442 58.3232 3.12504 38.7385C-2.14434 19.1539 1.94004 1.02909 12.2478 -1.74426C22.5555 -4.51762 35.1832 9.11064 40.4526 28.6953ZM34.3241 30.0933C36.1974 37.0557 36.4103 43.7332 35.2622 48.892C34.1083 54.0763 31.6203 57.5907 28.2092 58.5084C24.798 59.4262 20.8824 57.6348 17.283 53.7294C13.7012 49.8432 10.5347 43.9604 8.6614 36.998C6.78812 30.0356 6.57517 23.3581 7.72335 18.1993C8.87719 13.015 11.3652 9.50061 14.7764 8.58282C18.1875 7.66503 22.1031 9.45648 25.7025 13.3618C29.2843 17.248 32.4508 23.1309 34.3241 30.0933ZM34.7907 29.9677C38.5694 44.012 35.6789 56.999 28.3347 58.975C20.9904 60.9511 11.9735 51.1678 8.19481 37.1235C4.41611 23.0793 7.30656 10.0922 14.6508 8.11623C21.9951 6.14021 31.012 15.9235 34.7907 29.9677Z" fill="white"/>
</g>
</svg>
