<svg width="82" height="216" viewBox="0 0 82 216" fill="none" xmlns="http://www.w3.org/2000/svg">
<g style="mix-blend-mode:overlay" opacity="0.59">
<path fill-rule="evenodd" clip-rule="evenodd" d="M-17.8765 90.1331C-2.53367 60.9435 15.1877 36.5534 31.4229 20.7142C39.5426 12.7926 47.2704 7.02975 54.1245 3.86646C60.9865 0.699483 66.8864 0.174505 71.4358 2.56582C75.9853 4.95714 78.8984 10.1144 80.1809 17.5624C81.462 25.0018 81.0972 34.6349 79.1766 45.8148C75.3363 68.1691 65.2954 96.5963 49.9527 125.786C34.6099 154.975 16.8885 179.366 0.653242 195.205C-7.46639 203.126 -15.1942 208.889 -22.0483 212.052C-28.9104 215.219 -34.8102 215.744 -39.3596 213.353C-43.9091 210.962 -46.8222 205.805 -48.1047 198.357C-49.3858 190.917 -49.021 181.284 -47.1004 170.104C-43.2601 147.75 -33.2193 119.323 -17.8765 90.1331ZM-18.3042 89.9083C12.4153 31.4647 52.6939 -7.83129 71.6606 2.13812C90.6273 12.1075 81.0998 67.5672 50.3804 126.011C19.6609 184.454 -20.6177 223.75 -39.5844 213.781C-58.5512 203.811 -49.0236 148.352 -18.3042 89.9083ZM-7.94133 96.2461C3.05638 75.323 15.739 57.8358 27.3403 46.4747C33.143 40.7922 38.6551 36.6621 43.5319 34.3929C48.4172 32.1198 52.5772 31.7513 55.7622 33.4254C58.9472 35.0995 61.0026 38.735 61.9004 44.0479C62.7968 49.3517 62.5206 56.2338 61.1304 64.2357C58.3509 80.2338 51.1387 100.596 40.141 121.519C29.1432 142.442 16.4606 159.93 4.85932 171.291C-0.943364 176.973 -6.45543 181.103 -11.3323 183.373C-16.2176 185.646 -20.3776 186.014 -23.5626 184.34C-26.7476 182.666 -28.8029 179.03 -29.7008 173.718C-30.5972 168.414 -30.3209 161.532 -28.9307 153.53C-26.1513 137.532 -18.9391 117.169 -7.94133 96.2461ZM-8.36904 96.0212C13.6601 54.1111 42.4732 25.8945 55.987 32.9977C69.5008 40.1009 62.5978 79.8341 40.5687 121.744C18.5396 163.654 -10.2736 191.871 -23.7874 184.768C-37.3012 177.665 -30.3981 137.931 -8.36904 96.0212Z" fill="white"/>
</g>
</svg>
